:SAMPLES-PER-SECOND 30
:FULLY-SPECIFIED
:DEGREES
39
root  -2.57277 40.9233 0.244018 176.852 -67.2559 -177.262
RightUpLeg  1.16005 0.655529 0.395425
RightLeg  -0.298706 0.531527 -0.280397
RightFoot  0.400919 -0.3182 3.11985
RightToes  -3.13006e-008 1.75238e-005 3.56266e-009
Spine  -2.89463 -2.35025 7.2143
Spine1  1.53524 -1.45699 -7.64067
HEad  -0.763098 -4.77059 -14.2126
LeftShoulder1  1.38588 -6.33336 -6.40221
LeftArm  -39.9743 -74.3005 -36.1119
LeftForeArm  26.9387 -44.8021 -9.24344
LeftHand  0.148151 -2.11643 -2.1173
RightShoulder  0.525619 2.14493 1.00114
RightArm  -55.976 60.8695 1.20703
RightForeArm  20.3339 46.2146 10.2421
RightHand  -0.732442 6.40246 -7.52838
LeftUpLeg  6.61873 3.94202 4.10634
LeftLeg  -1.52466 32.2255 -2.26396
LeftFoot  -2.00388 0.477748 -5.70201
LeftToes  4.76866e-008 1.46233e-008 1.30548e-009
40
root  -2.61233 40.9371 0.218337 177.307 -67.0935 -177.229
RightUpLeg  0.866131 0.623151 0.344979
RightLeg  -0.673385 0.786818 -0.172914
RightFoot  0.615116 -0.328092 3.17084
RightToes  -3.13006e-008 1.75238e-005 3.56266e-009
Spine  -2.03611 -2.15196 7.903
Spine1  -0.116986 -1.1683 -8.54864
HEad  0.637595 -4.83199 -13.7791
LeftShoulder1  1.21409 -5.57022 -5.6125
LeftArm  -50.4649 -72.0613 -29.6531
LeftForeArm  27.331 -45.9568 -9.63592
LeftHand  0.161165 -2.90991 -2.03591
RightShoulder  0.455523 1.40385 0.950382
RightArm  -62.779 57.4406 -0.519251
RightForeArm  18.2687 46.0808 10.3426
RightHand  -0.789531 6.43438 -8.01957
LeftUpLeg  6.39539 3.81388 4.03356
LeftLeg  -2.06702 32.5193 -2.49823
LeftFoot  -1.77108 0.472434 -5.51488
LeftToes  4.76866e-008 1.46233e-008 1.30548e-009
41
root  -2.64426 40.9514 0.16831 177.454 -66.981 -177.061
RightUpLeg  0.705251 0.579227 0.360323
RightLeg  -0.910733 1.02855 -0.0301174
RightFoot  0.810301 -0.355433 3.38955
RightToes  -3.13006e-008 1.75238e-005 3.56266e-009
Spine  -1.83384 -2.03027 8.08858
Spine1  -0.65017 -1.05517 -8.66086
HEad  1.35242 -5.23094 -13.412
LeftShoulder1  1.09167 -4.46011 -5.95772
LeftArm  -56.4101 -68.3148 -25.3844
LeftForeArm  26.0954 -48.1664 -10.5923
LeftHand  0.119619 -2.02276 -1.7022
RightShoulder  0.401946 0.806112 1.0151
RightArm  -67.1645 53.5295 -0.520499
RightForeArm  19.3499 46.6242 10.4768
RightHand  -0.333394 6.19147 -3.68815
LeftUpLeg  6.28664 3.88296 4.19077
LeftLeg  -2.37015 32.5206 -2.71795
LeftFoot  -1.60319 0.479734 -5.51689
LeftToes  4.76866e-008 1.46233e-008 1.30548e-009
42
root  -2.6931 40.9546 0.110279 177.207 -67.0727 -176.7
RightUpLeg  0.812048 0.49301 0.443871
RightLeg  -1.0824 1.03874 0.161076
RightFoot  0.85737 -0.355555 3.38016
RightToes  -3.13006e-008 1.75238e-005 3.56266e-009
Spine  -2.21223 -2.15295 8.39433
Spine1  -0.182434 -1.10676 -9.11938
HEad  1.84691 -5.22025 -12.9329
LeftShoulder1  1.03048 -3.83396 -6.33087
LeftArm  -57.736 -62.4835 -24.6718
LeftForeArm  26.1286 -51.8765 -12.2443
LeftHand  0.104966 -1.42657 -1.65597
RightShoulder  0.400217 0.381576 2.12769
RightArm  -68.344 48.974 0.753706
RightForeArm  20.1188 48.709 11.2872
RightHand  -0.246336 5.97712 -2.84518
LeftUpLeg  6.23444 4.03215 4.44726
LeftLeg  -2.21475 32.2485 -2.66012
LeftFoot  -1.67068 0.490817 -5.68204
LeftToes  4.76866e-008 1.46233e-008 1.30548e-009
43
root  -2.72341 40.9454 0.0436014 176.952 -67.3632 -176.47
RightUpLeg  0.946287 0.475296 0.576284
RightLeg  -1.05493 0.670412 0.253649
RightFoot  0.723811 -0.334113 3.20677
RightToes  -3.13006e-008 1.75238e-005 3.56266e-009
Spine  -2.37295 -2.33615 7.40188
Spine1  0.199138 -1.45687 -7.81012
HEad  2.1758 -5.09274 -13.3488
LeftShoulder1  1.17826 -3.89991 -8.44891
LeftArm  -55.7484 -54.6187 -24.3294
LeftForeArm  27.3661 -57.0213 -15.0409
LeftHand  0.152389 -1.8296 -2.29527
RightShoulder  0.380968 -0.148113 3.32491
RightArm  -65.2042 43.3499 2.92035
RightForeArm  20.3203 51.9126 12.7381
RightHand  -0.453177 5.66093 -5.0753
LeftUpLeg  6.05745 4.19191 4.68017
LeftLeg  -1.56186 31.7717 -2.33261
LeftFoot  -1.91695 0.495488 -5.86962
LeftToes  4.76866e-008 1.46233e-008 1.30548e-009
44
root  -2.75315 40.9325 -0.0378246 176.52 -67.6927 -176.355
RightUpLeg  1.23504 0.462058 0.710333
RightLeg  -0.618547 0.40939 0.24356
RightFoot  0.371057 -0.32445 3.18613
RightToes  -3.13006e-008 1.75238e-005 3.56266e-009
Spine  -3.18044 -2.86422 6.18637
Spine1  1.95418 -2.10634 -6.51461
HEad  1.60674 -4.713 -14.042
LeftShoulder1  1.24099 -3.52407 -10.3862
LeftArm  -51.6958 -44.98 -24.8679
LeftForeArm  28.867 -63.4741 -20.1127
LeftHand  0.104918 -1.29299 -1.72337
RightShoulder  0.463325 -0.0818139 5.79143
RightArm  -62.2448 38.421 5.32922
RightForeArm  21.1949 55.7085 14.8099
RightHand  -0.510358 5.61015 -5.68712
LeftUpLeg  6.19619 4.36981 4.91729
LeftLeg  -0.930767 31.2433 -2.03608
LeftFoot  -2.18386 0.49719 -6.04166
LeftToes  4.76866e-008 1.46233e-008 1.30548e-009
45
root  -2.79299 40.9105 -0.145956 176.122 -67.8039 -176.26
RightUpLeg  1.49313 0.556204 0.95307
RightLeg  -0.160646 0.117484 0.165913
RightFoot  -0.0497927 -0.302306 3.05252
RightToes  -3.13006e-008 1.75238e-005 3.56266e-009
Spine  -4.08865 -3.38415 4.5762
Spine1  3.72799 -2.84381 -4.79079
HEad  1.2501 -3.86479 -14.7732
LeftShoulder1  1.30195 -3.17442 -12.4139
LeftArm  -46.6482 -33.666 -27.6165
LeftForeArm  34.39 -70.1869 -29.0237
LeftHand  0.0828344 -1.7821 -1.17887
RightShoulder  0.591916 0.216732 8.52296
RightArm  -56.0889 32.0097 8.78577
RightForeArm  21.9749 61.3831 18.9515
RightHand  -0.714084 5.19332 -8.11773
LeftUpLeg  6.42385 4.61974 5.21069
LeftLeg  -0.382073 30.8396 -1.82737
LeftFoot  -2.43301 0.494951 -6.16429
LeftToes  4.76866e-008 1.46233e-008 1.30548e-009
46
root  -2.83129 40.8908 -0.235152 175.717 -67.8296 -176.174
RightUpLeg  1.87418 0.424898 1.05512
RightLeg  0.0459401 0.147015 0.280723
RightFoot  -0.370446 -0.269169 2.77495
RightToes  -3.13006e-008 1.75238e-005 3.56266e-009
Spine  -4.91503 -4.03703 2.9703
Spine1  5.73772 -3.73693 -3.13369
HEad  0.431093 -3.2159 -15.2697
LeftShoulder1  1.36211 -2.88956 -14.4287
LeftArm  -42.2879 -21.3005 -31.4796
LeftForeArm  47.3395 -76.0909 -45.6331
LeftHand  0.118154 -2.26908 -1.6144
RightShoulder  0.732052 0.395989 11.694
RightArm  -50.1562 26.2841 13.2006
RightForeArm  25.7418 67.1531 25.0846
RightHand  -0.648551 5.11275 -7.4527
LeftUpLeg  6.63765 4.71803 5.38008
LeftLeg  0.212221 30.6761 -1.44297
LeftFoot  -2.69852 0.503487 -6.44484
LeftToes  4.76866e-008 1.46233e-008 1.30548e-009
47
root  -2.85845 40.8679 -0.32771 175.106 -67.7785 -175.841
RightUpLeg  2.20418 0.431316 1.28926
RightLeg  0.26989 0.149925 0.363045
RightFoot  -0.677135 -0.242907 2.55218
RightToes  -3.13006e-008 1.75238e-005 3.56266e-009
Spine  -6.18174 -4.54364 1.28019
Spine1  8.65026 -4.60055 -1.17897
HEad  -0.876102 -3.12429 -16.8516
LeftShoulder1  1.47113 -2.7535 -16.7915
LeftArm  -39.0463 -9.90135 -36.7866
LeftForeArm  67.8396 -79.1852 -69.5538
LeftHand  0.0774585 -2.35256 -0.969372
RightShoulder  0.974843 0.947114 15.1523
RightArm  -44.4328 20.8407 16.6053
RightForeArm  31.9046 71.7256 32.9245
RightHand  -0.705495 5.62583 -7.72747
LeftUpLeg  6.81334 5.07445 5.81516
LeftLeg  0.884499 30.2444 -1.22498
LeftFoot  -3.0274 0.502543 -6.66154
LeftToes  4.76866e-008 1.46233e-008 1.30548e-009
48
root  -2.8809 40.8467 -0.404876 174.309 -67.3751 -175.391
RightUpLeg  2.64316 0.525317 1.61038
RightLeg  0.357483 0.345526 0.398553
RightFoot  -0.884936 -0.227999 2.42449
RightToes  -3.13006e-008 1.75238e-005 3.56266e-009
Spine  -7.24995 -4.83089 -0.142462
Spine1  11.1127 -5.29855 0.658975
HEad  -1.59927 -2.72563 -18.2892
LeftShoulder1  1.90758 -3.6726 -20.0699
LeftArm  -36.8861 -0.270362 -41.2248
LeftForeArm  83.9336 -79.7778 -86.7845
LeftHand  0.0435873 -2.14567 -0.496788
RightShoulder  1.27772 1.78164 17.6792
RightArm  -38.7708 16.1013 20.9219
RightForeArm  38.5119 74.5624 40.7213
RightHand  -0.589517 5.42405 -6.63147
LeftUpLeg  7.14569 5.33723 6.19658
LeftLeg  1.4956 30.2324 -0.883649
LeftFoot  -3.36981 0.506233 -6.96939
LeftToes  4.76866e-008 1.46233e-008 1.30548e-009
